<?xml version="1.0" encoding="UTF-8"?>
<svg xmlns="http://www.w3.org/2000/svg" width="512" height="512" viewBox="0 0 512 512" role="img" aria-labelledby="title desc">
  <title id="title">eslint-plugin-test-signal logo</title>
  <desc id="desc">A teal signal mark with amber test pulse and negative-path check.</desc>
  <defs>
    <linearGradient id="shell" x1="92" y1="60" x2="420" y2="452" gradientUnits="userSpaceOnUse">
      <stop offset="0" stop-color="#0f766e"/>
      <stop offset="0.58" stop-color="#0f3f3c"/>
      <stop offset="1" stop-color="#082f2d"/>
    </linearGradient>
    <linearGradient id="pulse" x1="118" y1="264" x2="392" y2="264" gradientUnits="userSpaceOnUse">
      <stop offset="0" stop-color="#fbbf24"/>
      <stop offset="0.52" stop-color="#f97316"/>
      <stop offset="1" stop-color="#fb7185"/>
    </linearGradient>
    <filter id="softShadow" x="-20%" y="-20%" width="140%" height="140%">
      <feDropShadow dx="0" dy="18" stdDeviation="18" flood-color="#031917" flood-opacity="0.45"/>
    </filter>
  </defs>
  <rect width="512" height="512" rx="108" fill="#041f1d"/>
  <path d="M112 70h288c23.2 0 42 18.8 42 42v288c0 23.2-18.8 42-42 42H112c-23.2 0-42-18.8-42-42V112c0-23.2 18.8-42 42-42Z" fill="url(#shell)" filter="url(#softShadow)"/>
  <path d="M138 164c33.1-38.1 73-57.2 119.6-57.2 45.8 0 84.6 18.5 116.4 55.6" fill="none" stroke="#5eead4" stroke-width="18" stroke-linecap="round" opacity="0.42"/>
  <path d="M165 198c24.2-25.9 54.9-38.8 92-38.8 36.1 0 65.8 12.3 89 37" fill="none" stroke="#99f6e4" stroke-width="18" stroke-linecap="round" opacity="0.58"/>
  <path d="M193 232c18-15.9 39.2-23.8 63.5-23.8s45.2 7.9 62.5 23.8" fill="none" stroke="#ccfbf1" stroke-width="18" stroke-linecap="round" opacity="0.76"/>
  <path d="M119 296h58l28-58 52 117 43-92 27 33h66" fill="none" stroke="url(#pulse)" stroke-width="26" stroke-linecap="round" stroke-linejoin="round"/>
  <circle cx="256" cy="295" r="30" fill="#ccfbf1"/>
  <path d="m243 294 10 11 20-23" fill="none" stroke="#0f3f3c" stroke-width="10" stroke-linecap="round" stroke-linejoin="round"/>
  <path d="M154 360h204" stroke="#ccfbf1" stroke-width="18" stroke-linecap="round" opacity="0.82"/>
  <path d="M181 398h150" stroke="#5eead4" stroke-width="14" stroke-linecap="round" opacity="0.46"/>
</svg>
